<svg xmlns="http://www.w3.org/2000/svg" viewBox="0 0 744.09 1052.4"><path style="stroke:#000;stroke-width:1px;fill:none" d="m38 841 10 20M628 816l10 20M412 522l10 20M196 694l10 20M96 596l10 20M97 127l10 20M93 98l10 20M340 853l10 20M567 596l10 20M409 936l10 20M468 937l10 20M719 408l10 20M115 80l10 20M45 311l10 20M470 172l10 20M127 995l10 20M477 77l10 20M648 664l10 20M180 894l10 20M692 45l10 20M515 959l10 20M370 443l10 20M478 878l10 20M529 83l10 20M65 970l10 20M527 496l10 20M591 918l10 20M390 406l10 20M284 636l10 20M342 648l10 20M546 412l10 20M511 509l10 20M504 311l10 20M103 189l10 20M118 798l10 20M265 576l10 20M680 675l10 20M106 320l10 20M579 157l10 20M611 991l10 20M342 276l10 20M310 727l10 20M152 568l10 20M243 865l10 20M341 927l10 20M682 72l10 20M656 759l10 20M142 491l10 20M402 349l10 20M154 400l10 20M160 509l10 20M425 848l10 20M175 508l10 20M465 768l10 20M330 170l10 20M694 177l10 20M283 259l10 20M218 680l10 20M483 165l10 20M387 345l10 20M570 739l10 20M124 573l10 20M32 507l10 20M529 481l10 20M457 957l10 20M559 348l10 20M240 304l10 20M581 401l10 20M685 245l10 20M505 839l10 20M366 212l10 20M188 122l10 20M172 703l10 20M709 386l10 20M121 963l10 20M232 347l10 20M556 837l10 20M528 221l10 20M711 913l10 20M382 21l10 20M251 940l10 20M377 63l10 20M293 459l10 20M142 737l10 20M394 651l10 20M686 562l10 20M621 561l10 20M602 367l10 20M293 417l10 20M144 854l10 20M398 297l10 20M587 412l10 20M583 27l10 20M251 28l10 20M526 293l10 20M510 611l10 20M71 85l10 20M69 557l10 20M253 268l10 20M618 416l10 20M286 532l10 20M68 949l10 20M329 510l10 20M646 452l10 20M232 163l10 20M382 156l10 20M550 405l10 20M162 79l10 20M236 55l10 20M455 23l10 20M111 881l10 20M322 812l10 20M200 135l10 20M92 880l10 20M55 987l10 20M719 937l10 20M646 653l10 20M509 70l10 20M125 337l10 20M429 899l10 20M272 709l10 20M482 282l10 20M510 580l10 20M465 850l10 20M499 706l10 20M199 238l10 20M101 994l10 20M628 164l10 20M222 878l10 20M208 82l10 20M333 933l10 20M553 863l10 20M358 801l10 20M369 896l10 20M643 315l10 20M60 267l10 20M698 861l10 20M203 283l10 20M214 119l10 20M207 306l10 20M256 787l10 20M641 702l10 20M430 907l10 20M137 169l10 20M422 139l10 20M175 155l10 20M321 380l10 20M230 713l10 20M406 760l10 20M108 517l10 20M417 722l10 20M349 57l10 20M393 402l10 20M705 190l10 20M295 278l10 20M197 926l10 20M492 81l10 20M141 467l10 20M333 897l10 20M359 365l10 20M385 643l10 20M452 148l10 20M654 584l10 20M559 29l10 20M375 316l10 20M185 924l10 20M82 853l10 20M706 791l10 20M344 100l10 20M348 33l10 20M688 352l10 20M543 292l10 20M91 336l10 20M559 544l10 20M443 257l10 20M702 296l10 20M394 216l10 20M99 93l10 20M566 841l10 20M250 311l10 20M550 236l10 20M359 188l10 20M272 982l10 20M538 48l10 20M133 720l10 20M290 822l10 20M628 616l10 20M656 885l10 20M37 357l10 20M254 962l10 20M696 245l10 20M577 479l10 20M34 604l10 20M276 20l10 20M691 447l10 20M112 119l10 20M514 304l10 20M389 299l10 20M222 407l10 20M657 309l10 20M45 87l10 20M290 629l10 20M48 367l10 20M645 284l10 20M616 909l10 20M385 773l10 20M326 155l10 20M92 458l10 20M289 612l10 20M41 939l10 20M264 656l10 20M255 954l10 20M552 306l10 20M36 308l10 20M565 382l10 20M471 134l10 20M365 928l10 20M110 464l10 20M282 860l10 20M618 970l10 20M710 797l10 20M712 988l10 20M667 264l10 20M58 751l10 20M45 27l10 20M554 922l10 20M619 766l10 20M87 397l10 20M249 28l10 20M458 245l10 20M537 203l10 20M90 46l10 20M677 87l10 20M207 357l10 20M567 410l10 20M686 525l10 20M605 789l10 20M294 655l10 20M254 847l10 20M582 900l10 20M284 592l10 20M175 979l10 20M291 71l10 20M418 928l10 20M588 236l10 20M715 141l10 20M72 146l10 20M323 563l10 20M565 290l10 20M341 340l10 20M135 273l10 20M259 448l10 20M585 669l10 20M290 788l10 20M420 219l10 20M375 446l10 20M592 135l10 20M62 160l10 20M614 807l10 20M658 129l10 20M455 714l10 20M565 27l10 20M503 487l10 20M579 247l10 20M314 344l10 20M271 443l10 20M321 726l10 20M144 281l10 20M234 223l10 20M460 435l10 20M401 616l10 20M247 888l10 20M553 401l10 20M675 457l10 20M123 309l10 20M216 479l10 20M133 270l10 20M470 913l10 20M366 520l10 20M268 598l10 20M208 33l10 20M457 696l10 20M360 82l10 20M452 543l10 20M537 216l10 20M563 608l10 20M130 355l10 20M306 789l10 20M451 195l10 20M374 919l10 20M150 814l10 20M602 539l10 20M607 647l10 20M187 871l10 20M295 522l10 20M199 177l10 20M531 123l10 20M659 150l10 20M186 579l10 20M592 776l10 20M378 434l10 20M359 357l10 20M242 690l10 20M661 667l10 20M571 283l10 20M318 598l10 20M632 637l10 20M524 830l10 20M61 653l10 20M176 909l10 20M224 769l10 20M482 485l10 20M169 401l10 20M635 796l10 20M433 531l10 20M673 521l10 20M41 664l10 20M307 693l10 20M671 917l10 20M23 64l10 20M497 450l10 20M266 503l10 20M103 53l10 20M92 893l10 20M179 72l10 20M197 81l10 20M88 555l10 20M525 82l10 20M104 650l10 20M145 704l10 20M335 215l10 20M106 297l10 20M511 689l10 20M166 667l10 20M653 331l10 20M601 481l10 20M513 484l10 20M678 667l10 20M596 318l10 20M115 267l10 20M547 650l10 20M709 374l10 20M520 157l10 20M439 469l10 20M622 658l10 20M348 885l10 20M528 886l10 20M398 625l10 20M672 297l10 20M396 309l10 20M120 189l10 20M403 478l10 20M204 168l10 20M613 139l10 20M647 728l10 20M704 455l10 20M48 214l10 20M71 842l10 20M56 830l10 20M333 206l10 20M607 210l10 20M304 390l10 20M245 859l10 20M260 67l10 20M109 252l10 20M56 630l10 20M408 766l10 20M240 575l10 20M555 268l10 20M530 909l10 20M189 579l10 20M566 996l10 20M367 507l10 20M144 533l10 20M30 890l10 20M315 794l10 20M344 71l10 20M473 229l10 20M120 411l10 20M500 122l10 20M506 340l10 20M305 679l10 20M50 378l10 20M221 314l10 20M448 571l10 20M189 70l10 20M557 145l10 20M512 451l10 20M388 337l10 20M685 459l10 20M375 612l10 20M496 794l10 20M116 27l10 20M612 433l10 20M89 796l10 20M529 332l10 20M47 348l10 20M203 490l10 20M382 280l10 20M455 215l10 20"/><path style="stroke:#000;fill-opacity:0" d="M620 1018.1a35.714 2.857 0 1 1-71.429 0 35.714 2.857 0 1 1 71.429 0z" fill="none"/><path style="stroke:#000;fill-opacity:0" d="M642.86 1018.1a57.143 8.571 0 1 1-114.29 0 57.143 8.571 0 1 1 114.29 0zM168.57 1013.8a30 4.286 0 1 1-60 0 30 4.286 0 1 1 60 0z" fill="none"/><path style="stroke:#000;fill-opacity:0" d="M185.71 1013.8a47.143 7.143 0 1 1-94.286 0 47.143 7.143 0 1 1 94.286 0z" transform="translate(-57.143 2.857)" fill="none"/><path style="stroke:#000;fill-opacity:0" d="M620 1018.1a35.714 2.857 0 1 1-71.429 0 35.714 2.857 0 1 1 71.429 0z" transform="translate(-363.57 8.786)" fill="none"/><path style="stroke:#000;fill-opacity:0" d="M620 1018.1a35.714 2.857 0 1 1-71.429 0 35.714 2.857 0 1 1 71.429 0z" transform="translate(-83.571 17.357)" fill="none"/><path style="stroke:#000;fill-opacity:0" d="M620 1018.1a35.714 2.857 0 1 1-71.429 0 35.714 2.857 0 1 1 71.429 0z" transform="translate(90 -28.571)" fill="none"/><path style="stroke:#000;fill-opacity:0" d="M302.86 900.93a41.429 5.714 0 1 1-82.857 0 41.429 5.714 0 1 1 82.857 0z" transform="translate(-217.14 134.29)" fill="none"/><path style="stroke:#000;fill-opacity:0" d="M600 879.51a54.286 7.143 0 1 1-108.57 0 54.286 7.143 0 1 1 108.57 0z" transform="translate(-151.43 134.29)" fill="none"/><path style="stroke:#000;fill-opacity:0" d="M617.14 880.93a68.571 11.429 0 1 1-137.14 0 68.571 11.429 0 1 1 137.14 0z" transform="translate(-154.29 134.29)" fill="none"/></svg>